<mxfile host="app.diagrams.net" modified="2022-12-30T12:59:39.018Z" agent="5.0 (Windows NT 10.0; Win64; x64) AppleWebKit/537.36 (KHTML, like Gecko) Chrome/108.0.0.0 Safari/537.36 Edg/108.0.1462.54" etag="kosazYxXkcR4Ml_AlEPx" version="20.7.4" type="github">
  <diagram id="C5RBs43oDa-KdzZeNtuy" name="Page-1">
    <mxGraphModel dx="1050" dy="581" grid="1" gridSize="10" guides="1" tooltips="1" connect="1" arrows="1" fold="1" page="1" pageScale="1" pageWidth="827" pageHeight="1169" math="0" shadow="0">
      <root>
        <mxCell id="WIyWlLk6GJQsqaUBKTNV-0" />
        <mxCell id="WIyWlLk6GJQsqaUBKTNV-1" parent="WIyWlLk6GJQsqaUBKTNV-0" />
        <mxCell id="WIyWlLk6GJQsqaUBKTNV-2" value="" style="rounded=0;html=1;jettySize=auto;orthogonalLoop=1;fontSize=11;endArrow=block;endFill=0;endSize=8;strokeWidth=1;shadow=0;labelBackgroundColor=none;edgeStyle=orthogonalEdgeStyle;" parent="WIyWlLk6GJQsqaUBKTNV-1" edge="1">
          <mxGeometry relative="1" as="geometry">
            <mxPoint x="220" y="120" as="sourcePoint" />
            <mxPoint x="220" y="170" as="targetPoint" />
          </mxGeometry>
        </mxCell>
        <mxCell id="Haho5-h-Vpsg39bjOvO1-0" value="start" style="strokeWidth=2;html=1;shape=mxgraph.flowchart.start_1;whiteSpace=wrap;" vertex="1" parent="WIyWlLk6GJQsqaUBKTNV-1">
          <mxGeometry x="170" y="60" width="100" height="60" as="geometry" />
        </mxCell>
        <mxCell id="Haho5-h-Vpsg39bjOvO1-11" style="edgeStyle=orthogonalEdgeStyle;rounded=0;orthogonalLoop=1;jettySize=auto;html=1;exitX=0.5;exitY=1;exitDx=0;exitDy=0;entryX=0.5;entryY=0;entryDx=0;entryDy=0;entryPerimeter=0;" edge="1" parent="WIyWlLk6GJQsqaUBKTNV-1" source="Haho5-h-Vpsg39bjOvO1-2" target="Haho5-h-Vpsg39bjOvO1-10">
          <mxGeometry relative="1" as="geometry" />
        </mxCell>
        <mxCell id="Haho5-h-Vpsg39bjOvO1-2" value="int pilih" style="shape=parallelogram;perimeter=parallelogramPerimeter;whiteSpace=wrap;html=1;fixedSize=1;" vertex="1" parent="WIyWlLk6GJQsqaUBKTNV-1">
          <mxGeometry x="160" y="360" width="120" height="60" as="geometry" />
        </mxCell>
        <mxCell id="Haho5-h-Vpsg39bjOvO1-5" style="edgeStyle=orthogonalEdgeStyle;rounded=0;orthogonalLoop=1;jettySize=auto;html=1;exitX=0.5;exitY=1;exitDx=0;exitDy=0;entryX=0.5;entryY=0;entryDx=0;entryDy=0;" edge="1" parent="WIyWlLk6GJQsqaUBKTNV-1" source="Haho5-h-Vpsg39bjOvO1-3" target="Haho5-h-Vpsg39bjOvO1-4">
          <mxGeometry relative="1" as="geometry" />
        </mxCell>
        <mxCell id="Haho5-h-Vpsg39bjOvO1-3" value="Program Menghitung Luas Lingkaran &amp;amp; Persegi Panjang" style="rounded=0;whiteSpace=wrap;html=1;" vertex="1" parent="WIyWlLk6GJQsqaUBKTNV-1">
          <mxGeometry x="160" y="170" width="120" height="60" as="geometry" />
        </mxCell>
        <mxCell id="Haho5-h-Vpsg39bjOvO1-7" style="edgeStyle=orthogonalEdgeStyle;rounded=0;orthogonalLoop=1;jettySize=auto;html=1;exitX=0.5;exitY=1;exitDx=0;exitDy=0;" edge="1" parent="WIyWlLk6GJQsqaUBKTNV-1" source="Haho5-h-Vpsg39bjOvO1-4">
          <mxGeometry relative="1" as="geometry">
            <mxPoint x="220" y="330" as="targetPoint" />
          </mxGeometry>
        </mxCell>
        <mxCell id="Haho5-h-Vpsg39bjOvO1-9" style="edgeStyle=orthogonalEdgeStyle;rounded=0;orthogonalLoop=1;jettySize=auto;html=1;exitX=0.5;exitY=1;exitDx=0;exitDy=0;entryX=0.5;entryY=0;entryDx=0;entryDy=0;" edge="1" parent="WIyWlLk6GJQsqaUBKTNV-1" source="Haho5-h-Vpsg39bjOvO1-4" target="Haho5-h-Vpsg39bjOvO1-2">
          <mxGeometry relative="1" as="geometry" />
        </mxCell>
        <mxCell id="Haho5-h-Vpsg39bjOvO1-4" value="1. Luas Lingkaran&lt;br&gt;2. Luas Persegi Panjang&lt;br&gt;3. Selesai" style="rounded=0;whiteSpace=wrap;html=1;" vertex="1" parent="WIyWlLk6GJQsqaUBKTNV-1">
          <mxGeometry x="160" y="270" width="120" height="60" as="geometry" />
        </mxCell>
        <mxCell id="Haho5-h-Vpsg39bjOvO1-13" value="" style="edgeStyle=orthogonalEdgeStyle;rounded=0;orthogonalLoop=1;jettySize=auto;html=1;" edge="1" parent="WIyWlLk6GJQsqaUBKTNV-1" source="Haho5-h-Vpsg39bjOvO1-10">
          <mxGeometry relative="1" as="geometry">
            <mxPoint x="220" y="600" as="targetPoint" />
          </mxGeometry>
        </mxCell>
        <mxCell id="Haho5-h-Vpsg39bjOvO1-18" value="" style="edgeStyle=orthogonalEdgeStyle;rounded=0;orthogonalLoop=1;jettySize=auto;html=1;" edge="1" parent="WIyWlLk6GJQsqaUBKTNV-1" source="Haho5-h-Vpsg39bjOvO1-10" target="Haho5-h-Vpsg39bjOvO1-17">
          <mxGeometry relative="1" as="geometry" />
        </mxCell>
        <mxCell id="Haho5-h-Vpsg39bjOvO1-46" style="edgeStyle=orthogonalEdgeStyle;rounded=0;orthogonalLoop=1;jettySize=auto;html=1;entryX=0;entryY=0.5;entryDx=0;entryDy=0;entryPerimeter=0;" edge="1" parent="WIyWlLk6GJQsqaUBKTNV-1" source="Haho5-h-Vpsg39bjOvO1-10" target="Haho5-h-Vpsg39bjOvO1-42">
          <mxGeometry x="0.0282" y="-11" relative="1" as="geometry">
            <Array as="points">
              <mxPoint x="60" y="515" />
              <mxPoint x="60" y="1190" />
            </Array>
            <mxPoint x="1" y="-5" as="offset" />
          </mxGeometry>
        </mxCell>
        <mxCell id="Haho5-h-Vpsg39bjOvO1-10" value="luasLingkaran" style="strokeWidth=2;html=1;shape=mxgraph.flowchart.decision;whiteSpace=wrap;" vertex="1" parent="WIyWlLk6GJQsqaUBKTNV-1">
          <mxGeometry x="160" y="460" width="120" height="110" as="geometry" />
        </mxCell>
        <mxCell id="Haho5-h-Vpsg39bjOvO1-30" value="" style="edgeStyle=orthogonalEdgeStyle;rounded=0;orthogonalLoop=1;jettySize=auto;html=1;" edge="1" parent="WIyWlLk6GJQsqaUBKTNV-1" source="Haho5-h-Vpsg39bjOvO1-14" target="Haho5-h-Vpsg39bjOvO1-29">
          <mxGeometry relative="1" as="geometry" />
        </mxCell>
        <mxCell id="Haho5-h-Vpsg39bjOvO1-41" style="edgeStyle=orthogonalEdgeStyle;rounded=0;orthogonalLoop=1;jettySize=auto;html=1;" edge="1" parent="WIyWlLk6GJQsqaUBKTNV-1" source="Haho5-h-Vpsg39bjOvO1-14">
          <mxGeometry relative="1" as="geometry">
            <mxPoint x="220" y="1160" as="targetPoint" />
            <Array as="points">
              <mxPoint x="220" y="860" />
              <mxPoint x="220" y="860" />
            </Array>
          </mxGeometry>
        </mxCell>
        <mxCell id="Haho5-h-Vpsg39bjOvO1-48" style="edgeStyle=orthogonalEdgeStyle;rounded=0;orthogonalLoop=1;jettySize=auto;html=1;exitX=0;exitY=0.5;exitDx=0;exitDy=0;exitPerimeter=0;entryX=0;entryY=0.5;entryDx=0;entryDy=0;entryPerimeter=0;" edge="1" parent="WIyWlLk6GJQsqaUBKTNV-1" source="Haho5-h-Vpsg39bjOvO1-14" target="Haho5-h-Vpsg39bjOvO1-42">
          <mxGeometry relative="1" as="geometry">
            <mxPoint x="110" y="1190" as="targetPoint" />
            <Array as="points">
              <mxPoint x="110" y="655" />
              <mxPoint x="110" y="1190" />
            </Array>
          </mxGeometry>
        </mxCell>
        <mxCell id="Haho5-h-Vpsg39bjOvO1-14" value="luasPersegipanjang" style="strokeWidth=2;html=1;shape=mxgraph.flowchart.decision;whiteSpace=wrap;" vertex="1" parent="WIyWlLk6GJQsqaUBKTNV-1">
          <mxGeometry x="160" y="600" width="120" height="110" as="geometry" />
        </mxCell>
        <mxCell id="Haho5-h-Vpsg39bjOvO1-20" value="" style="edgeStyle=orthogonalEdgeStyle;rounded=0;orthogonalLoop=1;jettySize=auto;html=1;" edge="1" parent="WIyWlLk6GJQsqaUBKTNV-1" source="Haho5-h-Vpsg39bjOvO1-17" target="Haho5-h-Vpsg39bjOvO1-19">
          <mxGeometry relative="1" as="geometry" />
        </mxCell>
        <mxCell id="Haho5-h-Vpsg39bjOvO1-17" value="double luas, phi = 3,14" style="whiteSpace=wrap;html=1;strokeWidth=2;" vertex="1" parent="WIyWlLk6GJQsqaUBKTNV-1">
          <mxGeometry x="360" y="485" width="120" height="60" as="geometry" />
        </mxCell>
        <mxCell id="Haho5-h-Vpsg39bjOvO1-24" style="edgeStyle=orthogonalEdgeStyle;rounded=0;orthogonalLoop=1;jettySize=auto;html=1;exitX=0.5;exitY=1;exitDx=0;exitDy=0;entryX=0.5;entryY=0;entryDx=0;entryDy=0;" edge="1" parent="WIyWlLk6GJQsqaUBKTNV-1" source="Haho5-h-Vpsg39bjOvO1-19" target="Haho5-h-Vpsg39bjOvO1-23">
          <mxGeometry relative="1" as="geometry" />
        </mxCell>
        <mxCell id="Haho5-h-Vpsg39bjOvO1-19" value="int r" style="whiteSpace=wrap;html=1;strokeWidth=2;" vertex="1" parent="WIyWlLk6GJQsqaUBKTNV-1">
          <mxGeometry x="560" y="485" width="120" height="60" as="geometry" />
        </mxCell>
        <mxCell id="Haho5-h-Vpsg39bjOvO1-26" value="" style="edgeStyle=orthogonalEdgeStyle;rounded=0;orthogonalLoop=1;jettySize=auto;html=1;" edge="1" parent="WIyWlLk6GJQsqaUBKTNV-1" source="Haho5-h-Vpsg39bjOvO1-23" target="Haho5-h-Vpsg39bjOvO1-25">
          <mxGeometry relative="1" as="geometry" />
        </mxCell>
        <mxCell id="Haho5-h-Vpsg39bjOvO1-23" value="input masukkan jari jari" style="shape=parallelogram;perimeter=parallelogramPerimeter;whiteSpace=wrap;html=1;fixedSize=1;" vertex="1" parent="WIyWlLk6GJQsqaUBKTNV-1">
          <mxGeometry x="540" y="600" width="160" height="60" as="geometry" />
        </mxCell>
        <mxCell id="Haho5-h-Vpsg39bjOvO1-28" value="" style="edgeStyle=orthogonalEdgeStyle;rounded=0;orthogonalLoop=1;jettySize=auto;html=1;" edge="1" parent="WIyWlLk6GJQsqaUBKTNV-1" source="Haho5-h-Vpsg39bjOvO1-25" target="Haho5-h-Vpsg39bjOvO1-27">
          <mxGeometry relative="1" as="geometry" />
        </mxCell>
        <mxCell id="Haho5-h-Vpsg39bjOvO1-25" value="luas = phi*r*r" style="whiteSpace=wrap;html=1;" vertex="1" parent="WIyWlLk6GJQsqaUBKTNV-1">
          <mxGeometry x="560" y="720" width="120" height="60" as="geometry" />
        </mxCell>
        <mxCell id="Haho5-h-Vpsg39bjOvO1-55" style="edgeStyle=orthogonalEdgeStyle;rounded=0;orthogonalLoop=1;jettySize=auto;html=1;exitX=1;exitY=0.5;exitDx=0;exitDy=0;entryX=1;entryY=0.5;entryDx=0;entryDy=0;" edge="1" parent="WIyWlLk6GJQsqaUBKTNV-1" source="Haho5-h-Vpsg39bjOvO1-27" target="Haho5-h-Vpsg39bjOvO1-4">
          <mxGeometry relative="1" as="geometry">
            <Array as="points">
              <mxPoint x="740" y="870" />
              <mxPoint x="740" y="300" />
            </Array>
          </mxGeometry>
        </mxCell>
        <mxCell id="Haho5-h-Vpsg39bjOvO1-27" value="print Luas Lingkaran + luas" style="whiteSpace=wrap;html=1;" vertex="1" parent="WIyWlLk6GJQsqaUBKTNV-1">
          <mxGeometry x="560" y="840" width="120" height="60" as="geometry" />
        </mxCell>
        <mxCell id="Haho5-h-Vpsg39bjOvO1-33" value="" style="edgeStyle=orthogonalEdgeStyle;rounded=0;orthogonalLoop=1;jettySize=auto;html=1;" edge="1" parent="WIyWlLk6GJQsqaUBKTNV-1" source="Haho5-h-Vpsg39bjOvO1-29" target="Haho5-h-Vpsg39bjOvO1-32">
          <mxGeometry relative="1" as="geometry" />
        </mxCell>
        <mxCell id="Haho5-h-Vpsg39bjOvO1-29" value="&amp;nbsp;int panjang , lebar luas" style="whiteSpace=wrap;html=1;strokeWidth=2;" vertex="1" parent="WIyWlLk6GJQsqaUBKTNV-1">
          <mxGeometry x="360" y="625" width="120" height="60" as="geometry" />
        </mxCell>
        <mxCell id="Haho5-h-Vpsg39bjOvO1-35" value="" style="edgeStyle=orthogonalEdgeStyle;rounded=0;orthogonalLoop=1;jettySize=auto;html=1;" edge="1" parent="WIyWlLk6GJQsqaUBKTNV-1" source="Haho5-h-Vpsg39bjOvO1-32" target="Haho5-h-Vpsg39bjOvO1-34">
          <mxGeometry relative="1" as="geometry" />
        </mxCell>
        <mxCell id="Haho5-h-Vpsg39bjOvO1-32" value="input masukkan panjang" style="shape=parallelogram;perimeter=parallelogramPerimeter;whiteSpace=wrap;html=1;fixedSize=1;strokeWidth=2;" vertex="1" parent="WIyWlLk6GJQsqaUBKTNV-1">
          <mxGeometry x="360" y="740" width="120" height="60" as="geometry" />
        </mxCell>
        <mxCell id="Haho5-h-Vpsg39bjOvO1-37" value="" style="edgeStyle=orthogonalEdgeStyle;rounded=0;orthogonalLoop=1;jettySize=auto;html=1;" edge="1" parent="WIyWlLk6GJQsqaUBKTNV-1" source="Haho5-h-Vpsg39bjOvO1-34" target="Haho5-h-Vpsg39bjOvO1-36">
          <mxGeometry relative="1" as="geometry" />
        </mxCell>
        <mxCell id="Haho5-h-Vpsg39bjOvO1-34" value="input masukkan lebar" style="shape=parallelogram;perimeter=parallelogramPerimeter;whiteSpace=wrap;html=1;fixedSize=1;strokeWidth=2;" vertex="1" parent="WIyWlLk6GJQsqaUBKTNV-1">
          <mxGeometry x="350" y="850" width="140" height="60" as="geometry" />
        </mxCell>
        <mxCell id="Haho5-h-Vpsg39bjOvO1-39" value="" style="edgeStyle=orthogonalEdgeStyle;rounded=0;orthogonalLoop=1;jettySize=auto;html=1;" edge="1" parent="WIyWlLk6GJQsqaUBKTNV-1" source="Haho5-h-Vpsg39bjOvO1-36" target="Haho5-h-Vpsg39bjOvO1-38">
          <mxGeometry relative="1" as="geometry" />
        </mxCell>
        <mxCell id="Haho5-h-Vpsg39bjOvO1-36" value="luas = panjang * lebar" style="whiteSpace=wrap;html=1;strokeWidth=2;" vertex="1" parent="WIyWlLk6GJQsqaUBKTNV-1">
          <mxGeometry x="360" y="960" width="120" height="50" as="geometry" />
        </mxCell>
        <mxCell id="Haho5-h-Vpsg39bjOvO1-52" style="edgeStyle=orthogonalEdgeStyle;rounded=0;orthogonalLoop=1;jettySize=auto;html=1;exitX=0.5;exitY=1;exitDx=0;exitDy=0;entryX=1;entryY=0.5;entryDx=0;entryDy=0;" edge="1" parent="WIyWlLk6GJQsqaUBKTNV-1" source="Haho5-h-Vpsg39bjOvO1-38" target="Haho5-h-Vpsg39bjOvO1-4">
          <mxGeometry relative="1" as="geometry">
            <mxPoint x="280" y="300" as="targetPoint" />
            <Array as="points">
              <mxPoint x="420" y="1150" />
              <mxPoint x="780" y="1150" />
              <mxPoint x="780" y="300" />
            </Array>
          </mxGeometry>
        </mxCell>
        <mxCell id="Haho5-h-Vpsg39bjOvO1-38" value="print Luas Persegi panjang + luas" style="whiteSpace=wrap;html=1;strokeWidth=2;" vertex="1" parent="WIyWlLk6GJQsqaUBKTNV-1">
          <mxGeometry x="360" y="1070" width="120" height="60" as="geometry" />
        </mxCell>
        <mxCell id="Haho5-h-Vpsg39bjOvO1-42" value="end" style="strokeWidth=2;html=1;shape=mxgraph.flowchart.start_1;whiteSpace=wrap;" vertex="1" parent="WIyWlLk6GJQsqaUBKTNV-1">
          <mxGeometry x="170" y="1160" width="100" height="60" as="geometry" />
        </mxCell>
        <mxCell id="Haho5-h-Vpsg39bjOvO1-43" value="Yes" style="text;html=1;strokeColor=none;fillColor=none;align=center;verticalAlign=middle;whiteSpace=wrap;rounded=0;" vertex="1" parent="WIyWlLk6GJQsqaUBKTNV-1">
          <mxGeometry x="290" y="480" width="60" height="30" as="geometry" />
        </mxCell>
        <mxCell id="Haho5-h-Vpsg39bjOvO1-45" value="Yes" style="text;html=1;strokeColor=none;fillColor=none;align=center;verticalAlign=middle;whiteSpace=wrap;rounded=0;" vertex="1" parent="WIyWlLk6GJQsqaUBKTNV-1">
          <mxGeometry x="290" y="625" width="60" height="30" as="geometry" />
        </mxCell>
        <mxCell id="Haho5-h-Vpsg39bjOvO1-49" value="No" style="text;html=1;strokeColor=none;fillColor=none;align=center;verticalAlign=middle;whiteSpace=wrap;rounded=0;" vertex="1" parent="WIyWlLk6GJQsqaUBKTNV-1">
          <mxGeometry x="110" y="625" width="60" height="30" as="geometry" />
        </mxCell>
        <mxCell id="Haho5-h-Vpsg39bjOvO1-50" value="No" style="text;html=1;strokeColor=none;fillColor=none;align=center;verticalAlign=middle;whiteSpace=wrap;rounded=0;" vertex="1" parent="WIyWlLk6GJQsqaUBKTNV-1">
          <mxGeometry x="90" y="490" width="60" height="30" as="geometry" />
        </mxCell>
      </root>
    </mxGraphModel>
  </diagram>
</mxfile>
